<?xml version="1.0" encoding="UTF-8"?>
<svg id="Layer_2" data-name="Layer 2" xmlns="http://www.w3.org/2000/svg" viewBox="0 0 41.52 25">
  <defs>
    <style>
      .cls-1 {
        fill: #20b085;
      }

      .cls-2 {
        fill: none;
      }
    </style>
  </defs>
  <g id="Layer_1-2" data-name="Layer 1">
    <g>
      <path class="cls-1" d="m0,25V0h7.67v8.81L15.63,0h8.73l-9.26,10.25,9.92,14.75h-8.16l-6.49-10.09-2.69,2.87v7.22H0Z"/>
      <g>
        <polygon class="cls-2" points="35.03 23.19 34.3 25 36.55 25 37.29 23.17 35.03 23.19"/>
        <polygon class="cls-1" points="35.03 23.19 33.66 23.2 35.01 21.43 35.73 21.42 37.58 16.8 34.78 16.8 33.94 18.9 34.84 20.9 32.88 22.18 32.75 21.88 31.5 25 34.3 25 35.03 23.19"/>
        <polygon class="cls-1" points="39.57 23.14 37.29 23.17 36.55 25 39.36 25 41.52 19.61 38.71 19.61 37.99 21.41 39.5 21.4 39.57 23.14"/>
        <polygon class="cls-1" points="32.99 16.8 30.43 16.8 32.75 21.88 33.94 18.9 32.99 16.8"/>
        <polygon class="cls-1" points="34.84 20.9 33.94 18.9 32.75 21.88 32.88 22.18 34.84 20.9"/>
        <polygon class="cls-1" points="37.29 23.17 37.99 21.41 35.73 21.42 35.03 23.19 37.29 23.17"/>
        <polygon class="cls-1" points="33.66 23.2 35.03 23.19 35.73 21.42 35.01 21.43 33.66 23.2"/>
        <polygon class="cls-1" points="39.57 23.14 39.5 21.4 37.99 21.41 37.29 23.17 39.57 23.14"/>
      </g>
    </g>
  </g>
</svg>